<?xml version="1.0" encoding="UTF-8" standalone="no"?>
<svg
   xmlns:dc="http://purl.org/dc/elements/1.1/"
   xmlns:cc="http://creativecommons.org/ns#"
   xmlns:rdf="http://www.w3.org/1999/02/22-rdf-syntax-ns#"
   xmlns:svg="http://www.w3.org/2000/svg"
   xmlns="http://www.w3.org/2000/svg"
   width="500"
   height="190"
   viewBox="0 0 132.29166 50.270839"
   version="1.1"
   id="svg8">
  <defs
     id="defs2" />
  <metadata
     id="metadata5">
    <rdf:RDF>
      <cc:Work
         rdf:about="">
        <dc:format>image/svg+xml</dc:format>
        <dc:type
           rdf:resource="http://purl.org/dc/dcmitype/StillImage" />
        <dc:title></dc:title>
      </cc:Work>
    </rdf:RDF>
  </metadata>
  <g
     id="layer1">
    <path
       style="fill:#000000;stroke:none;stroke-width:0.117652px;stroke-linecap:butt;stroke-linejoin:miter;stroke-opacity:1"
       d="m 9.3264833,25.119685 v -4.201212 c -1.3774606,-1.119267 -2.4541728,-2.38251 -2.4541728,-4.325998 0,-2.402411 2.4005868,-5.345105 5.4698935,-5.345105 6.128144,0 7.487306,7.68083 7.487306,8.839181 0,5.533057 -1.361744,10.097032 -4.679567,10.399036 V 12.162485 l -4.492385,2.017413 V 36.829 c 7.361865,0 13.726729,-3.082958 13.726729,-15.078603 0,-9.393091 -4.371738,-14.454661 -10.981382,-14.454661 -4.1848904,0 -10.5030247,3.348302 -10.5030247,9.837488 0,3.048496 1.5104918,7.255512 6.426603,7.986461 z"
       id="path3142" />
    <path
       id="path3144"
       style="fill:#000000;stroke:none;stroke-width:0.117652px;stroke-linecap:butt;stroke-linejoin:miter;stroke-opacity:1"
       d="m 30.145374,16.779698 c -4.068368,0 -5.417951,4.410524 -5.417951,7.435265 0,6.015627 3.324689,10.000876 5.345108,12.665937 0.140666,0.185546 0.228914,0.178016 0.343304,0.02091 L 32.828384,33.938 c 0.07746,-0.09515 0.118549,-0.195047 -0.01563,-0.384206 l -0.774846,-1.092415 c -0.05665,-0.163094 -0.145864,-0.264115 0.09375,-0.50944 1.983048,-2.030282 2.969378,-4.606849 2.9429,-7.685045 -0.03714,-4.31803 -1.73518,-7.487195 -4.92919,-7.487195 z m -0.395237,4.097128 c 1.225183,0 1.726401,2.073871 1.726401,3.306885 0,2.397928 -0.602092,3.473252 -1.560033,3.473252 -1.124817,0 -1.657266,-2.477132 -1.705261,-4.097127 -0.02439,-0.823305 0.08538,-2.68301 1.538893,-2.68301 z" />
    <path
       id="path3144-7"
       style="fill:#000000;stroke:none;stroke-width:0.117652px;stroke-linecap:butt;stroke-linejoin:miter;stroke-opacity:1"
       d="m 41.23344,16.779698 c -4.068368,0 -5.417952,4.410523 -5.417952,7.435264 0,6.015628 3.32469,10.000877 5.345109,12.665938 0.140666,0.185546 0.228913,0.178016 0.343304,0.02091 L 43.916449,33.938 c 0.07746,-0.09515 0.11855,-0.195048 -0.01563,-0.384207 l -0.774846,-1.092415 c -0.05665,-0.163093 -0.145864,-0.264114 0.09375,-0.509439 1.983048,-2.030283 2.969377,-4.606849 2.942901,-7.685045 -0.03713,-4.318031 -1.735182,-7.487196 -4.929192,-7.487196 z m -0.395237,4.097128 c 1.225183,0 1.726401,2.07387 1.726401,3.306885 0,2.397928 -0.602092,3.473252 -1.560033,3.473252 -1.124817,0 -1.657267,-2.477132 -1.705261,-4.097127 -0.02439,-0.823306 0.08539,-2.68301 1.538893,-2.68301 z" />
    <path
       id="path3169"
       style="fill:#000000;stroke:none;stroke-width:0.117652px;stroke-linecap:butt;stroke-linejoin:miter;stroke-opacity:1"
       d="m 52.872135,16.306794 c -2.611431,0 -4.630387,2.543583 -5.720811,5.514922 -0.215348,0.586815 -0.271033,1.316469 -0.308835,2.014785 v 24.589198 l 3.676615,-2.588336 V 36.33699 c 0.58388,0.498973 1.332572,0.764736 2.11773,0.764736 3.989083,0 7.235576,-5.112255 7.235576,-10.971018 0,-6.107664 -4.101864,-9.823914 -7.000275,-9.823914 z m 0.0887,4.195707 c 2.001961,0 2.370955,4.327881 2.370955,6.031485 0,3.323365 -0.697755,6.052168 -1.892537,6.052168 -1.834743,0 -2.454139,-3.754981 -2.454139,-5.906711 0,-3.25251 0.635115,-6.176942 1.975721,-6.176942 z" />
    <path
       style="fill:#000000;stroke:none;stroke-width:0.117652px;stroke-linecap:butt;stroke-linejoin:miter;stroke-opacity:1"
       d="M 71.949479,46.999257 V 13.763936 c 1.735862,-0.572209 3.344532,-1.904423 4.284404,-2.662153 V 42.75645 Z"
       id="path3174" />
    <path
       style="fill:#000000;stroke:none;stroke-width:0.117652px;stroke-linecap:butt;stroke-linejoin:miter;stroke-opacity:1"
       d="m 71.019905,19.880463 v 4.220754 c -4.138638,-0.305953 -8.22091,-3.042849 -8.22091,-8.47092 0,-5.9337105 6.137424,-9.132711 10.471,-9.132711 5.089862,0 9.735675,2.0397137 9.735675,7.000274 0,1.64143 -0.770636,6.367897 -5.97082,6.367897 v -3.808973 c 1.148296,-0.156821 2.11773,-0.682648 2.11773,-2.338327 0,-1.954734 -2.675112,-3.8383855 -5.838465,-3.8383855 -2.530124,0 -6.02965,2.7044415 -6.02965,5.9119965 0,1.562215 0.922401,3.430013 3.73544,4.088395 z"
       id="path3176" />
    <path
       id="path3169-3"
       style="fill:#000000;stroke:none;stroke-width:0.117652px;stroke-linecap:butt;stroke-linejoin:miter;stroke-opacity:1"
       d="m 107.69859,16.306794 c -2.61143,0 -4.63038,2.543582 -5.72081,5.514922 -0.21535,0.586815 -0.27103,1.316469 -0.30884,2.014785 v 24.589198 l 3.67662,-2.588336 V 36.33699 c 0.58388,0.498973 1.33258,0.764736 2.11773,0.764736 3.98908,0 7.23558,-5.112255 7.23558,-10.971018 0,-6.107664 -4.10187,-9.823914 -7.00028,-9.823914 z m 0.0887,4.195707 c 2.00197,0 2.37096,4.327881 2.37096,6.031485 0,3.323365 -0.69776,6.052168 -1.89254,6.052168 -1.83474,0 -2.45414,-3.754981 -2.45414,-5.906712 0,-3.252509 0.63512,-6.176941 1.97572,-6.176941 z" />
    <path
       id="path3144-7-4"
       style="fill:#000000;stroke:none;stroke-width:0.117652px;stroke-linecap:butt;stroke-linejoin:miter;stroke-opacity:1"
       d="m 125.00593,16.779698 c -4.06837,0 -5.41795,4.410523 -5.41795,7.435264 0,6.015628 3.32469,10.000877 5.34511,12.665938 0.14066,0.185546 0.22891,0.178016 0.3433,0.02091 l 2.41255,-2.96381 c 0.0775,-0.09515 0.11855,-0.195048 -0.0156,-0.384207 l -0.77485,-1.092415 c -0.0566,-0.163093 -0.14586,-0.264114 0.0938,-0.509439 1.98305,-2.030283 2.96938,-4.606849 2.9429,-7.685045 -0.0371,-4.318031 -1.73518,-7.487196 -4.92919,-7.487196 z m -0.39524,4.097128 c 1.22518,0 1.7264,2.07387 1.7264,3.306885 0,2.397928 -0.60209,3.473252 -1.56003,3.473252 -1.12481,0 -1.65726,-2.477132 -1.70526,-4.097127 -0.0244,-0.823306 0.0854,-2.68301 1.53889,-2.68301 z" />
    <path
       style="fill:#000000;stroke:none;stroke-width:0.117652px;stroke-linecap:butt;stroke-linejoin:miter;stroke-opacity:1"
       d="m 85.608715,15.542058 -4.088395,4.117809 v 12.265186 c 0,3.955472 3.007879,4.617828 4.500175,4.617828 1.463451,0 2.268993,-0.356691 2.794225,-0.941214 v 1.735362 l 4.147221,-4.264873 V 15.542058 l -4.117806,3.52955 v 12.529903 c -0.40595,0.42026 -0.886943,0.893515 -2.00008,1.000039 -0.678078,0.06489 -1.207495,-0.363108 -1.264755,-1.705949 z"
       id="path3218" />
    <path
       style="fill:#000000;stroke:none;stroke-width:0.117652px;stroke-linecap:butt;stroke-linejoin:miter;stroke-opacity:1"
       d="M 94.256111,36.219338 V 19.012782 l 4.117805,-3.706028 v 1.764775 c 0.985869,-0.375844 1.752004,-1.410929 3.206014,-0.382367 v 4.117808 c -1.22364,-0.402514 -3.323664,-0.105274 -3.323664,1.853014 V 36.1311 Z"
       id="path3220" />
    <path
       style="fill:#000000;stroke:none;stroke-width:0.117652px;stroke-linecap:butt;stroke-linejoin:miter;stroke-opacity:1"
       d="m 118.96297,2.6886131 -0.4412,26.2363219 c -0.0319,1.895224 0.50353,3.455624 2.44127,4.559002 l -3.73544,2.735401 c -1.86416,-2.405123 -2.23538,-4.127025 -2.23538,-5.676692 V 6.659357 Z"
       id="path3222" />
  </g>
</svg>
